HIERARCHY
ROOT pelvis
{
  OFFSET 0 100 0
  CHANNELS 6 Xposition Yposition Zposition Zrotation Xrotation Yrotation
  JOINT pelvis_right_femur
  {
    OFFSET -10.78128 -3.44521 -0.5502486
    CHANNELS 3 Zrotation Xrotation Yrotation
    JOINT right_femur_tibia
    {
      OFFSET -0.8047443 -44.0398 -0.1307829
      CHANNELS 3 Zrotation Xrotation Yrotation
      JOINT right_tibia_foot
      {
        OFFSET 3.006224 -47.83518 -5
        CHANNELS 3 Zrotation Xrotation Yrotation
        End Site
        {
          OFFSET 0 -5 15
        }
      }
    }
  }
  JOINT pelvis_left_femur
  {
    OFFSET 10.78128 -3.44521 -0.5502486
    CHANNELS 3 Zrotation Xrotation Yrotation
    JOINT left_femur_tibia
    {
      OFFSET 0.8047443 -44.0398 -0.1307829
      CHANNELS 3 Zrotation Xrotation Yrotation
      JOINT left_tibia_foot
      {
        OFFSET -4.370144 -48.10324 -4.275266
        CHANNELS 3 Zrotation Xrotation Yrotation
        End Site
        {
          OFFSET 0 -5 15
        }
      }
    }
  }
  JOINT pelvis_spine1
  {
    OFFSET 0 6.468898 -3.129235
    CHANNELS 3 Zrotation Xrotation Yrotation
    JOINT spine1
    {
      OFFSET 0 23.15396 4.99043
      CHANNELS 3 Zrotation Xrotation Yrotation
      JOINT spine2
      {
        OFFSET 0 20.79997 -5.064912
        CHANNELS 3 Zrotation Xrotation Yrotation
        JOINT neck
        {
          OFFSET 0 14.38658 9.616178
          CHANNELS 3 Zrotation Xrotation Yrotation
          End Site
          {
            OFFSET 0 20 0
          }
        }
      }
      JOINT right_manubrium
      {
        OFFSET -5.722621 16.35077 3.967754
        CHANNELS 3 Zrotation Xrotation Yrotation
        JOINT right_clavicle
        {
          OFFSET -13.16364 1.694482 -4.693211
          CHANNELS 3 Zrotation Xrotation Yrotation
          JOINT right_humerus
          {
            OFFSET -28.5034 -0.3100689 -2.792744
            CHANNELS 3 Zrotation Xrotation Yrotation
            JOINT right_radius
            {
              OFFSET -25.15693 0.02248979 -1.271978
              CHANNELS 3 Zrotation Xrotation Yrotation
              End Site
              {
                OFFSET -15 0 0
              }
            }
          }
        }
      }
      JOINT left_manubrium
      {
        OFFSET 5.722621 16.35077 3.967754
        CHANNELS 3 Zrotation Xrotation Yrotation
        JOINT left_clavicle
        {
          OFFSET 13.16364 1.694482 -4.693211
          CHANNELS 3 Zrotation Xrotation Yrotation
          JOINT left_humerus
          {
            OFFSET 29.39168 -1.063119 -2.237045
            CHANNELS 3 Zrotation Xrotation Yrotation
            JOINT left_radius
            {
              OFFSET 24.59957 -0.9528479 0.9047498
              CHANNELS 3 Zrotation Xrotation Yrotation
              End Site
              {
                OFFSET 15 -0 -0
              }
            }
          }
        }
      }
    }
  }
}
MOTION
Frames: 23
Frame Time: 0.0416666666667
0 103.5113 0 1.7529 0.101443 0.1691047 2.127416 -16.3199 9.941528 -0 39.30488 -0 -5.881061 -17.73954 -2.059102 -7.951236 9.16072 -24.30479 -0 4.336986 -0 13.72046 -13.78245 28.48854 -4.613274 -3.915446 5.347332 2.657373 9.762379 -7.048056 1.493836 21.98948 6.948959 3.105358 -24.53893 10.33596 7.313753 -19.78926 11.56635 83.88268 39.56673 -16.66133 -0 0 17.30398 -6.127918 8.44424 3.920154 5.708794 -18.57523 -0.9603871 -92.31089 20.67759 20.90751 0 0 -12.87018 16.04053 14.383 -5.129183
0.474656 103.8093 1.486042 1.326807 0.4206963 0.3252 3.084432 -18.56622 9.851422 -0 38.15757 -0 -5.728312 -16.9724 -2.101982 -7.667115 9.486809 -23.58436 -0 4.476848 -0 13.71824 -14.27362 28.22758 -4.268471 -3.669033 5.21393 2.782077 9.902641 -7.290623 1.421572 21.71088 6.927655 3.092157 -24.80409 10.19557 7.165539 -19.87209 11.65576 84.18306 39.11996 -17.11867 -0 0 17.1026 -5.996183 8.254033 3.83645 5.984043 -18.97804 -1.089126 -92.07608 20.48749 20.62116 0 0 -13.94683 16.19236 13.98979 -5.229982
0.9092822 103.9397 3.789237 0.1712004 0.006381876 0.5327389 4.313361 -22.97698 6.936797 -0 35.00664 -0 -6.632576 -9.864105 -1.299895 -6.612562 9.910385 -20.52312 -0 5.154953 -0 11.21271 -15.95404 25.34092 -3.01245 -2.644362 4.26007 2.527296 10.68691 -7.520745 1.160994 21.46104 7.188355 3.490177 -24.99748 9.455012 6.019881 -20.06406 12.02656 85.86787 35.725 -18.33382 -0 0 15.17199 -9.546736 8.676392 5.685555 6.56355 -20.78462 -2.517746 -91.10218 20.50955 19.6668 0 0 -17.29249 14.86257 14.43024 -3.220077
1.288982 103.9447 6.584495 -0.4212976 0.1274276 0.7402552 4.951839 -25.98065 5.5287 -0 31.35517 -0 -6.955964 -7.009809 -1.052902 -6.034583 10.81507 -18.96915 -0 5.785003 -0 9.457507 -17.23258 23.49006 -2.411806 -2.128904 3.76811 2.51893 10.74376 -7.706889 1.139365 21.36741 7.216557 3.55019 -25.09887 9.202621 5.339419 -19.86589 12.00228 86.83194 34.19239 -19.23959 -0 0 13.95424 -10.87496 8.925083 6.392973 6.812835 -21.63314 -3.038962 -90.41396 21.21656 18.7656 0 0 -19.63693 13.62981 14.71384 -1.483441
1.654129 103.7609 10.08368 -0.7235465 0.3440477 0.9932805 4.915354 -28.82456 3.173054 -0 25.80004 -0 -7.688226 -2.902801 -0.1561374 -5.695886 11.43381 -16.70248 -0 6.960143 -0 8.180744 -18.20297 21.18615 -2.022884 -1.758005 3.456707 2.472657 11.0896 -7.858832 1.039905 21.22405 7.2695 3.768355 -25.06491 8.764295 4.603175 -19.64023 12.02154 87.95173 32.6802 -20.28955 -0 0 12.28853 -12.91064 9.216381 7.334648 7.195967 -23.0424 -3.73186 -89.04561 20.36735 17.16681 0 0 -22.36791 13.9071 14.40237 -1.630925
2.029147 103.2778 14.35878 -0.5899567 0.1011079 1.319628 3.917247 -30.40361 -0.1377176 -0 19.465 -0 -8.756717 1.824275 1.050558 -5.634778 11.99926 -14.10525 -0 7.930125 -0 6.883138 -19.14594 18.56761 -1.895914 -1.529476 3.215498 2.271846 11.53913 -7.843426 0.9375743 21.29942 7.237182 3.973566 -24.63252 8.143673 3.587928 -19.40827 12.04338 89.29529 30.36089 -21.2886 -0 0 10.24251 -15.73529 9.403983 8.661719 7.521663 -24.69905 -4.683529 -87.3454 19.00891 15.09721 0 0 -25.26405 14.32128 14.15431 -2.126786
2.426784 102.3808 19.46781 0.06847554 -0.712102 1.750889 2.167024 -30.63987 -4.262562 -0 12.09365 -0 -9.950649 6.375236 2.327643 -5.930313 12.88589 -11.15756 -0 8.439173 -0 5.784822 -20.15187 15.86121 -2.059997 -1.54501 3.059983 1.927466 11.99891 -7.679777 0.8410262 21.65426 6.997208 4.036554 -23.59506 7.288 2.156375 -19.13564 12.02185 90.91874 26.82611 -22.25306 -0 0 7.812203 -18.99948 9.234709 10.10379 7.842439 -26.59459 -5.887931 -85.30497 17.02829 12.28056 0 0 -28.49282 14.94122 13.94396 -3.234927
2.828951 101.0636 25.32058 1.031582 -1.887451 2.317493 0.5772667 -29.63916 -7.806084 -0 5.073419 -0 -10.5531 8.750065 2.739246 -6.471211 14.64329 -8.693716 -0 8.374629 -0 4.377378 -21.32783 13.47906 -2.326248 -1.825134 2.904307 1.524253 11.94628 -7.399529 0.8839439 22.31957 6.47731 3.733763 -22.05592 6.514316 0.400878 -18.65398 11.77443 92.61144 22.43557 -23.04119 -0 0 5.50623 -21.4172 8.655951 11.02355 7.994314 -27.96136 -6.959634 -83.52512 15.92858 9.267834 0 0 -31.45852 14.44186 14.23021 -3.343675
3.194171 99.58722 31.66094 1.637308 -2.898414 2.956902 0.2708853 -27.98357 -9.084152 -0 1.537897 -0 -10.169 7.634432 1.605219 -6.766601 17.02471 -7.768154 -0 8.851291 -0 2.149384 -21.97064 11.77402 -2.191028 -2.230492 2.613486 1.16719 11.04861 -7.07756 1.160784 23.1215 5.873523 3.041843 -20.61422 6.338654 -1.204614 -17.85998 11.23471 93.93712 18.71499 -23.40591 -0 0 4.079355 -21.98255 8.111415 11.01602 7.757098 -27.89227 -7.39666 -82.67748 17.04679 7.245388 0 0 -32.81411 12.00949 15.34708 -1.096302
3.453029 98.47947 38.12929 1.172955 -3.28214 3.463803 1.671326 -26.24726 -7.55145 -0 3.697031 -0 -9.429627 3.717281 -0.5732785 -6.140853 18.52981 -8.867611 -0 12.94824 -0 -1.015027 -20.83584 10.71636 -1.200037 -2.414963 2.175266 0.9300098 9.591778 -6.790591 1.641016 23.77434 5.579271 2.273799 -20.09124 7.071799 -1.966465 -16.80737 10.59286 94.42554 17.76907 -23.23457 -0 0 3.900728 -20.99066 8.534265 10.36908 6.983854 -26.1373 -6.947055 -83.25204 20.44676 7.455822 0 0 -31.49655 8.124626 17.14295 3.545973
3.552156 98.10424 44.4563 0.05437955 -3.569529 3.675756 3.701547 -23.86925 -5.129672 -0 8.649658 -0 -9.223493 -0.4100931 -2.418412 -4.886944 17.57091 -10.68298 -0 22.72079 -0 -4.060507 -17.76106 10.18472 0.2165985 -2.192809 1.892293 0.7236171 8.539751 -6.50812 2.132674 24.26591 5.653111 1.8849 -20.21353 8.137128 -1.824059 -15.78696 10.21654 94.18334 19.47759 -22.68773 -0 0 4.326825 -20.24156 10.35133 9.817768 6.011689 -23.97545 -6.175384 -84.82379 23.85288 9.300708 0 0 -28.49826 4.921032 19.11396 7.968107
3.508951 98.39665 50.57568 -0.6751277 -4.560407 3.549067 5.092845 -20.24932 -3.818067 -0 11.8926 -0 -9.479437 -3.015495 -3.400757 -3.905124 14.47985 -11.5507 -0 35.01213 -0 -5.826901 -14.26882 10.27905 1.240016 -1.783331 2.008702 0.4001596 8.436732 -6.162059 2.511699 24.73434 5.730021 1.888844 -20.00555 8.749487 -1.542171 -15.19154 10.21275 93.82802 21.33995 -21.96447 -0 0 4.722746 -20.91384 12.74966 9.773062 5.344791 -22.73196 -5.857179 -86.26809 25.36162 11.03611 0 0 -25.74466 3.597998 20.91668 10.05997
3.364783 99.18495 56.50944 -0.9022725 -6.005178 3.120176 5.902739 -15.90289 -3.354064 -0 12.88351 -0 -9.88656 -4.033099 -3.863757 -3.269709 10.32206 -11.31099 -0 45.83982 -0 -6.228612 -11.28678 10.891 1.791306 -1.485567 2.487677 0.007776718 9.149501 -5.850155 2.768116 24.98637 5.622503 1.99798 -19.57988 8.835015 -1.613926 -15.38393 10.46235 93.7341 22.0688 -21.23731 -0 0 5.32942 -22.55142 14.8668 10.24249 4.918111 -22.45811 -6.075028 -87.33684 25.18977 12.6673 0 0 -23.88665 3.433079 22.11682 10.56759
3.153494 100.325 62.277 -0.950831 -7.448714 2.460552 6.548328 -11.29106 -2.879012 -0 12.74899 -0 -10.35971 -4.077594 -4.16574 -2.643743 5.543227 -10.30248 -0 53.9455 -0 -5.612778 -8.709184 11.731 2.104493 -1.406816 3.247847 -0.3181767 10.46647 -5.696592 2.924709 24.80281 5.26559 1.979111 -19.4045 8.561016 -2.071918 -16.5379 10.86725 93.94295 21.66614 -20.55806 -0 0 6.584017 -24.28785 16.41192 11.06203 4.419815 -22.75511 -6.608934 -88.29911 24.08281 14.95839 0 0 -22.73686 3.523523 22.36983 10.77415
2.920429 101.6527 67.89312 -0.9790307 -8.712304 1.648538 7.119319 -6.513532 -2.028179 -0 12.27883 -0 -10.80176 -3.916178 -4.46978 -1.790089 0.3684201 -8.726159 -0 58.58414 -0 -4.263069 -6.40819 12.58117 2.268035 -1.529313 4.21364 -0.4894518 12.16753 -5.719079 2.995068 24.15139 4.599216 1.697553 -19.55782 8.001699 -2.786506 -18.61794 11.34701 94.27676 20.29526 -19.75767 -0 0 8.75963 -25.48618 17.30934 12.02058 3.697721 -23.27967 -7.28762 -89.27904 22.4999 18.18078 0 0 -21.93131 3.459926 21.58641 11.21738
2.734151 102.9736 73.37917 -1.031783 -9.662963 0.7776704 7.495963 -1.628608 -0.8586754 -0 11.97039 -0 -10.97669 -4.345052 -4.786099 -0.6322837 -4.866715 -6.857426 -0 58.6825 -0 -2.569051 -4.489914 13.27403 2.293362 -1.790032 5.257271 -0.4893247 13.87323 -5.827522 2.97837 23.1681 3.694189 1.113091 -19.89752 7.288356 -3.528746 -21.3502 11.80332 94.42714 18.35432 -18.56426 -0 0 11.87811 -25.92242 17.73052 13.03667 2.780115 -23.66759 -7.904386 -90.31342 20.86202 22.17479 0 0 -21.11323 3.026221 20.02687 12.10801
2.673226 104.0788 78.77638 -1.100998 -10.173 -0.05595182 7.526479 3.158633 0.2467871 -0 12.01387 -0 -10.64376 -5.879717 -4.97667 0.7065616 -9.698495 -5.117986 -0 53.70151 -0 -1.028797 -3.17376 13.76066 2.184604 -2.100654 6.188373 -0.3943552 15.11031 -5.862129 2.866447 22.13287 2.820738 0.3688284 -20.16469 6.642933 -3.99794 -24.17241 12.14901 94.05272 16.60522 -16.80973 -0 0 15.56795 -25.924 18.0771 14.16876 1.894714 -23.62836 -8.230479 -91.3839 19.50866 26.34085 0 0 -19.99841 2.264348 18.31243 13.28811
2.79387 104.8027 84.14175 -1.14565 -10.19905 -0.7933706 7.181823 7.463238 0.8153728 -0 12.25395 -0 -9.833491 -8.376156 -4.80407 1.935714 -13.70052 -3.942477 -0 44.78705 -0 -0.04749523 -2.566573 14.18489 1.946344 -2.347385 6.823415 -0.3341489 15.54446 -5.681199 2.652483 21.3637 2.348562 -0.1599519 -20.06009 6.233344 -3.87977 -26.34707 12.35711 92.85147 15.97029 -14.5697 -0 0 19.11926 -26.05211 18.63653 15.3601 1.39823 -23.11651 -8.151313 -92.42802 18.48597 29.78226 0 0 -18.28014 1.600849 17.14781 14.06125
3.104782 105.0853 89.52452 -1.132904 -9.848309 -1.444723 6.597253 10.92244 0.6562616 -0 12.42863 -0 -8.911615 -11.0721 -4.147221 2.777187 -16.66823 -3.549514 -0 34.65739 -0 0.26539 -2.520844 14.76745 1.600938 -2.434389 7.093722 -0.3893266 15.18799 -5.260213 2.355147 21.03839 2.480043 -0.1111098 -19.43721 6.051832 -3.059206 -27.37006 12.44762 90.76996 16.89728 -12.10815 -0 0 21.86675 -26.54362 19.28297 16.3367 1.516622 -22.32467 -7.755819 -93.38852 17.59465 31.8488 0 0 -15.7088 1.546672 16.86902 13.67652
3.574367 104.975 94.95458 -1.07657 -9.335717 -2.068685 5.95893 13.43543 0.0023682 -0 12.5123 -0 -8.287167 -13.17776 -3.160446 3.154405 -18.62935 -3.820749 -0 25.80544 -0 0.1179687 -2.73216 15.57746 1.211959 -2.363317 7.079514 -0.536917 14.37248 -4.706113 2.025505 21.09512 3.07935 0.5196702 -18.44418 5.967229 -1.793184 -27.33817 12.43097 88.19664 18.91728 -9.716143 -0 0 23.60552 -27.16124 19.65517 16.85755 2.14539 -21.50115 -7.251392 -94.25552 16.65222 32.60741 0 0 -12.40795 2.253857 17.23221 12.04154
4.157953 104.578 100.4497 -1.01988 -8.841436 -2.72034 5.381722 15.14581 -0.7654154 -0 12.69354 -0 -8.130415 -14.3652 -2.106328 3.180234 -19.74569 -4.454589 -0 19.17538 -0 -0.1737595 -2.937911 16.48797 0.8562078 -2.226234 6.925489 -0.7053616 13.48904 -4.16138 1.712585 21.33356 3.845519 1.445378 -17.38449 5.869556 -0.4854435 -26.75714 12.32148 85.70823 21.15076 -7.62767 -0 0 24.57035 -27.58381 19.56467 16.92402 2.985264 -20.80856 -6.806894 -95.04361 15.60691 32.62823 0 0 -8.84544 3.495869 17.74955 9.668717
4.815718 104.0089 106.0204 -0.9898482 -8.436626 -3.425874 4.892755 16.25586 -1.420617 -0 13.11192 -0 -8.394636 -14.69783 -1.132466 3.004557 -20.22745 -5.202333 -0 14.60822 -0 -0.3978354 -3.006789 17.33514 0.572853 -2.111041 6.742898 -0.8469768 12.77499 -3.711945 1.434626 21.58637 4.573279 2.413662 -16.47345 5.722826 0.6390513 -26.06327 12.16485 83.65691 23.06147 -5.978704 -0 0 25.08589 -27.71007 19.08699 16.68698 3.802587 -20.31259 -6.4953 -95.75494 14.46473 32.4273 0 0 -5.440049 4.992086 18.11535 7.072131
5.516165 103.3669 111.6682 -0.9848166 -8.121346 -4.189043 4.475886 16.91866 -1.913395 -0 13.77429 -0 -8.96382 -14.36256 -0.2597367 2.726134 -20.27424 -5.936634 -0 11.69351 -0 -0.4745584 -2.912494 18.02841 0.357614 -2.052494 6.586335 -0.9497263 12.3052 -3.379879 1.186383 21.77724 5.200124 3.324284 -15.77763 5.529397 1.558895 -25.44924 12.01351 82.10387 24.55965 -4.792849 -0 0 25.35959 -27.60341 18.39223 16.28652 4.503818 -20.02274 -6.325799 -96.37817 13.23488 32.24507 0 0 -2.385704 6.591143 18.25371 4.492238
